<?xml version="1.0" encoding="utf-8"?>
<!-- Generator: Adobe Illustrator 19.2.1, SVG Export Plug-In . SVG Version: 6.00 Build 0)  -->
<svg version="1.1" id="Layer_1" xmlns="http://www.w3.org/2000/svg" xmlns:xlink="http://www.w3.org/1999/xlink" x="0px" y="0px"
	 viewBox="0 0 53 51" style="enable-background:new 0 0 53 51;" xml:space="preserve">
<style type="text/css">
	.st0{fill:#FFFFFF;stroke:#FFFFFF;stroke-width:0.25;stroke-miterlimit:10;}
	.st1{fill:#FFFFFF;}
	.st2{fill:#20CE6D;stroke:#20CE6D;stroke-width:0.25;stroke-miterlimit:10;}
	.st3{fill:#20CE6D;}
	.st4{fill:#2D97DF;stroke:#2D97DF;stroke-width:0.25;stroke-miterlimit:10;}
	.st5{fill:#2D97DF;}
	.st6{fill:#F59D00;}
	.st7{fill:#FFFFFF;stroke:#FFFFFF;stroke-width:1.262;stroke-miterlimit:10;}
</style>
<g>
	<g>
		<path class="st4" d="M14.5,19.6c-0.5,0-0.9-0.1-1.3-0.3s-0.7-0.4-0.9-0.7s-0.5-0.6-0.6-1s-0.3-0.8-0.4-1.2S11,15.6,11,15.2
			c0-0.4-0.1-0.8-0.1-1.2c0-0.4,0-0.7,0.1-1.2c0.1-0.4,0.1-0.8,0.2-1.2c0.1-0.4,0.3-0.8,0.4-1.2c0.2-0.4,0.4-0.7,0.7-1
			c0.3-0.3,0.6-0.5,0.9-0.7c0.4-0.2,0.7-0.3,1.2-0.3c0.4,0,0.9,0.1,1.3,0.2c0.4,0.2,0.7,0.4,1,0.8c0.1,0.2,0.3,0.5,0.3,0.7
			s0.1,0.5,0.1,0.8h-1c0-0.2,0-0.3-0.1-0.5s-0.1-0.3-0.2-0.4c-0.2-0.2-0.4-0.4-0.6-0.5c-0.3-0.1-0.5-0.1-0.8-0.1
			c-0.3,0-0.6,0.1-0.9,0.2c-0.3,0.2-0.5,0.4-0.7,0.6c-0.2,0.2-0.4,0.5-0.5,0.9c-0.1,0.3-0.2,0.7-0.3,1s-0.1,0.7-0.2,1
			c0,0.3,0,0.6,0,0.9c0,0.3,0,0.6,0,0.9c0,0.3,0.1,0.7,0.1,1c0.1,0.3,0.2,0.7,0.3,1c0.1,0.3,0.3,0.6,0.4,0.9
			c0.2,0.3,0.4,0.5,0.7,0.6c0.3,0.2,0.6,0.2,1,0.2c0.5,0,0.9-0.1,1.2-0.3c0.3-0.2,0.5-0.6,0.6-1.1c0-0.1,0.1-0.2,0.2-0.3
			c0.1-0.1,0.2-0.1,0.3-0.1s0.3,0.1,0.4,0.2c0.1,0.1,0.2,0.2,0.1,0.4c-0.1,0.8-0.4,1.3-0.9,1.7S15.2,19.6,14.5,19.6z"/>
		<path class="st4" d="M25.5,11.9c0,0.6-0.1,1.1-0.2,1.5c-0.1,0.4-0.4,0.8-0.7,1c-0.3,0.3-0.7,0.5-1.2,0.6c-0.4,0.1-0.9,0.2-1.6,0.2
			h-1v1.5v2.4c0,0.1,0,0.3-0.1,0.4c-0.1,0.1-0.2,0.1-0.4,0.1c-0.1,0-0.2,0-0.3-0.1c-0.1-0.1-0.1-0.2-0.1-0.4v-2.4V8.5h2.6
			c0.2,0,0.3,0,0.5,0c0.2,0,0.4,0,0.6,0.1c0.2,0.1,0.4,0.1,0.6,0.2c0.2,0.1,0.4,0.2,0.5,0.4c0.3,0.3,0.5,0.6,0.6,1.1
			C25.4,10.8,25.5,11.3,25.5,11.9z M24.5,11.9c0-1-0.2-1.6-0.5-2c-0.2-0.1-0.4-0.3-0.6-0.3c-0.2-0.1-0.5-0.1-0.9-0.1h-1.6v4.8h1
			c0.5,0,0.9,0,1.3-0.1c0.3-0.1,0.6-0.2,0.8-0.4c0.1-0.1,0.1-0.1,0.2-0.2c0.1-0.1,0.1-0.2,0.2-0.3s0.1-0.3,0.1-0.5
			C24.5,12.5,24.5,12.2,24.5,11.9z"/>
		<path class="st4" d="M33.8,16.6c0,0.4-0.1,0.8-0.2,1.2c-0.1,0.4-0.3,0.7-0.6,1c-0.2,0.3-0.5,0.5-0.9,0.6c-0.4,0.2-0.8,0.2-1.2,0.2
			c-0.5,0-0.9-0.1-1.3-0.2s-0.7-0.4-0.9-0.6c-0.2-0.3-0.4-0.6-0.5-1c-0.1-0.4-0.2-0.8-0.2-1.2V8.6h1v7.8c0,0.3,0,0.6,0.1,0.9
			c0.1,0.3,0.2,0.5,0.3,0.7c0.1,0.2,0.3,0.4,0.6,0.5c0.2,0.1,0.6,0.2,0.9,0.2c0.4,0,0.7-0.1,0.9-0.2c0.2-0.1,0.4-0.3,0.6-0.5
			c0.1-0.2,0.3-0.5,0.3-0.7c0.1-0.3,0.1-0.6,0.1-0.9V8.6h1V16.6z"/>
		<path class="st4" d="M17,37.1c0,0.1,0,0.3-0.1,0.4c-0.1,0.1-0.2,0.1-0.3,0.1h-4.7c-0.1,0-0.2,0-0.3-0.1s-0.1-0.2-0.1-0.4v-5.2
			v-5.2h5.5v1h-4.5v3.8h4.1v1h-4.1v4.2h4.2c0.1,0,0.2,0,0.3,0.1C16.9,36.9,17,37,17,37.1z"/>
		<path class="st4" d="M25.6,32.2c0,0.9,0,1.7-0.1,2.3s-0.2,1.2-0.5,1.6c-0.3,0.5-0.7,0.9-1.2,1.1c-0.5,0.2-1.1,0.4-1.9,0.4h-2
			c-0.1,0-0.3,0-0.4-0.1s-0.1-0.2-0.1-0.4v-5v-5.4l2.3,0c0.8,0,1.5,0.1,2,0.4c0.5,0.3,0.9,0.7,1.2,1.2c0.3,0.5,0.4,1.1,0.5,1.7
			C25.6,30.7,25.6,31.4,25.6,32.2z M24.6,32.2c0-0.7,0-1.3-0.1-1.9c0-0.6-0.2-1.1-0.4-1.5c-0.1-0.1-0.1-0.2-0.3-0.4
			s-0.2-0.3-0.4-0.4s-0.4-0.2-0.7-0.3c-0.3-0.1-0.6-0.1-1-0.1h-1.3v4.4v4.5h1.5c0.4,0,0.7,0,0.9-0.1c0.3-0.1,0.5-0.1,0.6-0.2
			s0.3-0.2,0.4-0.3s0.2-0.2,0.2-0.3c0.2-0.4,0.3-0.8,0.4-1.4C24.6,33.7,24.6,33,24.6,32.2z"/>
		<path class="st4" d="M33.8,34.8c0,0.4-0.1,0.8-0.2,1.2c-0.1,0.4-0.3,0.7-0.6,1c-0.2,0.3-0.5,0.5-0.9,0.6c-0.4,0.2-0.8,0.2-1.2,0.2
			c-0.5,0-0.9-0.1-1.3-0.2S29,37.3,28.8,37c-0.2-0.3-0.4-0.6-0.5-1c-0.1-0.4-0.2-0.8-0.2-1.2v-8.1h1v7.8c0,0.3,0,0.6,0.1,0.9
			c0.1,0.3,0.2,0.5,0.3,0.7c0.1,0.2,0.3,0.4,0.6,0.5c0.2,0.1,0.6,0.2,0.9,0.2c0.4,0,0.7-0.1,0.9-0.2c0.2-0.1,0.4-0.3,0.6-0.5
			c0.1-0.2,0.3-0.5,0.3-0.7c0.1-0.3,0.1-0.6,0.1-0.9v-7.8h1V34.8z"/>
	</g>
	<g>
		<path class="st5" d="M38.1,23.7h-0.5v-1.3h0.5V23.7z M35.6,23.7h-2v-1.3h2V23.7z M31.6,23.7h-2v-1.3h2V23.7z M27.6,23.7h-2v-1.3h2
			V23.7z M23.6,23.7h-2v-1.3h2V23.7z M19.6,23.7h-2v-1.3h2V23.7z M15.6,23.7h-2v-1.3h2V23.7z M11.6,23.7h-2v-1.3h2V23.7z"/>
	</g>
	<g>
		<g>
			<g>
				<path class="st5" d="M38,17l6.1,6.1L38,29.2V17 M36.8,14.1v18.1l9-9L36.8,14.1L36.8,14.1z"/>
			</g>
		</g>
	</g>
</g>
</svg>
